<?xml version="1.0" encoding="UTF-8" standalone="no"?>
<!-- Created with Inkscape (http://www.inkscape.org/) -->

<svg
   version="1.1"
   id="svg1"
   width="1440"
   height="1607.6533"
   viewBox="0 0 1440 1607.6533"
   sodipodi:docname="upload_hbp4xbjibgsb2zgqj6oxorkvq2.pdf"
   xmlns:inkscape="http://www.inkscape.org/namespaces/inkscape"
   xmlns:sodipodi="http://sodipodi.sourceforge.net/DTD/sodipodi-0.dtd"
   xmlns="http://www.w3.org/2000/svg"
   xmlns:svg="http://www.w3.org/2000/svg">
  <defs
     id="defs1">
    <clipPath
       clipPathUnits="userSpaceOnUse"
       id="clipPath4">
      <path
         d="M 0,1205.739 H 1080 V 0 H 0 Z"
         transform="translate(-409.24151,-901.85973)"
         id="path4" />
    </clipPath>
    <clipPath
       clipPathUnits="userSpaceOnUse"
       id="clipPath6">
      <path
         d="M 0,1205.739 H 1080 V 0 H 0 Z"
         transform="translate(0,-2.5000001e-5)"
         id="path6" />
    </clipPath>
    <clipPath
       clipPathUnits="userSpaceOnUse"
       id="clipPath8">
      <path
         d="M 0,1205.739 H 1080 V 0 H 0 Z"
         transform="translate(-887.15282,-874.86442)"
         id="path8" />
    </clipPath>
    <clipPath
       clipPathUnits="userSpaceOnUse"
       id="clipPath10">
      <path
         d="M 0,1205.739 H 1080 V 0 H 0 Z"
         transform="translate(-151.5801,-586.01462)"
         id="path10" />
    </clipPath>
    <clipPath
       clipPathUnits="userSpaceOnUse"
       id="clipPath12">
      <path
         d="M 0,1205.739 H 1080 V 0 H 0 Z"
         transform="translate(-492.24691,-565.96991)"
         id="path12" />
    </clipPath>
    <clipPath
       clipPathUnits="userSpaceOnUse"
       id="clipPath14">
      <path
         d="M 0,1205.739 H 1080 V 0 H 0 Z"
         transform="translate(-833.58152,-457.77131)"
         id="path14" />
    </clipPath>
    <clipPath
       clipPathUnits="userSpaceOnUse"
       id="clipPath16">
      <path
         d="M 0,1205.739 H 1080 V 0 H 0 Z"
         transform="translate(0,-2.5000001e-5)"
         id="path16" />
    </clipPath>
    <clipPath
       clipPathUnits="userSpaceOnUse"
       id="clipPath18">
      <path
         d="M 0,1205.739 H 1080 V 0 H 0 Z"
         transform="translate(-337.61471,-1085.6155)"
         id="path18" />
    </clipPath>
    <clipPath
       clipPathUnits="userSpaceOnUse"
       id="clipPath20">
      <path
         d="M 0,1205.739 H 1080 V 0 H 0 Z"
         transform="translate(-413.08471,-1029.7383)"
         id="path20" />
    </clipPath>
    <clipPath
       clipPathUnits="userSpaceOnUse"
       id="clipPath22">
      <path
         d="M 0,1205.739 H 1080 V 0 H 0 Z"
         transform="translate(-423.28011,-1085.6155)"
         id="path22" />
    </clipPath>
    <clipPath
       clipPathUnits="userSpaceOnUse"
       id="clipPath24">
      <path
         d="M 0,1205.739 H 1080 V 0 H 0 Z"
         transform="translate(-727.35472,-816.95032)"
         id="path24" />
    </clipPath>
    <clipPath
       clipPathUnits="userSpaceOnUse"
       id="clipPath26">
      <path
         d="M 0,1205.739 H 1080 V 0 H 0 Z"
         transform="translate(-796.08872,-797.05902)"
         id="path26" />
    </clipPath>
    <clipPath
       clipPathUnits="userSpaceOnUse"
       id="clipPath28">
      <path
         d="M 0,1205.739 H 1080 V 0 H 0 Z"
         transform="translate(-873.11995,-846.74122)"
         id="path28" />
    </clipPath>
    <clipPath
       clipPathUnits="userSpaceOnUse"
       id="clipPath30">
      <path
         d="M 0,1205.739 H 1080 V 0 H 0 Z"
         transform="translate(-908.5621,-818.10332)"
         id="path30" />
    </clipPath>
    <clipPath
       clipPathUnits="userSpaceOnUse"
       id="clipPath32">
      <path
         d="M 0,1205.739 H 1080 V 0 H 0 Z"
         transform="translate(-386.52091,-425.52964)"
         id="path32" />
    </clipPath>
    <clipPath
       clipPathUnits="userSpaceOnUse"
       id="clipPath34">
      <path
         d="M 0,1205.739 H 1080 V 0 H 0 Z"
         transform="translate(0,-2.5000001e-5)"
         id="path34" />
    </clipPath>
    <clipPath
       clipPathUnits="userSpaceOnUse"
       id="clipPath36">
      <path
         d="M 0,1205.739 H 1080 V 0 H 0 Z"
         transform="translate(0,-2.5000001e-5)"
         id="path36" />
    </clipPath>
    <clipPath
       clipPathUnits="userSpaceOnUse"
       id="clipPath38">
      <path
         d="M 0,1205.739 H 1080 V 0 H 0 Z"
         transform="translate(0,-2.5000001e-5)"
         id="path38" />
    </clipPath>
    <clipPath
       clipPathUnits="userSpaceOnUse"
       id="clipPath40">
      <path
         d="M 0,1205.739 H 1080 V 0 H 0 Z"
         transform="translate(-907.228,-212.29968)"
         id="path40" />
    </clipPath>
    <clipPath
       clipPathUnits="userSpaceOnUse"
       id="clipPath42">
      <path
         d="M 0,1205.739 H 1080 V 0 H 0 Z"
         transform="translate(0,-2.5000001e-5)"
         id="path42" />
    </clipPath>
  </defs>
  <sodipodi:namedview
     id="namedview1"
     pagecolor="#ffffff"
     bordercolor="#000000"
     borderopacity="0.25"
     inkscape:showpageshadow="2"
     inkscape:pageopacity="0.0"
     inkscape:pagecheckerboard="0"
     inkscape:deskcolor="#d1d1d1">
    <inkscape:page
       x="0"
       y="0"
       inkscape:label="1"
       id="page1"
       width="1440"
       height="1607.6533"
       margin="111.39813 123.75066 83.013336 130.54907"
       bleed="0" />
  </sodipodi:namedview>
  <g
     id="layer-MC0"
     inkscape:groupmode="layer"
     inkscape:label="Calque 1">
    <path
       id="path1"
       d="M 0,0 V -121.474 L -159.711,78.758 h -46.125 v -207.372 h 53.668 V -14.137 L 7.328,-214.37 H 53.453 V 0 Z"
       style="fill:#00fff5;fill-opacity:1;fill-rule:nonzero;stroke:none"
       transform="matrix(1.3333333,0,0,-1.3333333,405.24133,270.5096)" />
    <path
       id="path2"
       d="m 98.095,788.488 h 53.668 v 16.869 H 98.095 Z"
       style="fill:#00fff5;fill-opacity:1;fill-rule:nonzero;stroke:none"
       transform="matrix(1.3333333,0,0,-1.3333333,0,1607.6533)" />
    <path
       id="path3"
       d="m 0,0 c 0,-73.497 54.53,-119.838 125.226,-119.838 74.575,0 125.226,49.789 125.226,119.838 V 179.756 H 196.784 V -0.431 c 0,-41.167 -26.511,-73.282 -71.558,-73.282 -46.34,0 -71.773,32.546 -71.773,73.713 v 100.998 l -53.453,0 z"
       style="fill:#00fff5;fill-opacity:1;fill-rule:nonzero;stroke:none"
       transform="matrix(1.3333333,0,0,-1.3333333,545.65533,405.17373)"
       clip-path="url(#clipPath4)" />
    <path
       id="path5"
       d="M 765.65,1081.616 H 711.982 V 874.864 h 53.668 z"
       style="fill:#00fff5;fill-opacity:1;fill-rule:nonzero;stroke:none"
       transform="matrix(1.3333333,0,0,-1.3333333,0,1607.6533)"
       clip-path="url(#clipPath6)" />
    <path
       id="path7"
       d="m 0,0 h 53.668 v 160.412 h 46.366 v 46.34 h -187.11 v -46.34 H 0 Z"
       style="fill:#00fff5;fill-opacity:1;fill-rule:nonzero;stroke:none"
       transform="matrix(1.3333333,0,0,-1.3333333,1182.8704,441.16747)"
       clip-path="url(#clipPath8)" />
    <path
       id="path9"
       d="m 0,0 h 147.857 v -121.993 h 54.099 V 171.135 H 147.857 V 46.125 H 0 v 125.01 H -53.668 V -68.88 H 0 Z"
       style="fill:#00fff5;fill-opacity:1;fill-rule:nonzero;stroke:none"
       transform="matrix(1.3333333,0,0,-1.3333333,202.1068,826.30053)"
       clip-path="url(#clipPath10)" />
    <path
       id="path11"
       d="m 0,0 48.495,120.7 h 0.216 L 96.991,0 Z m 139.236,-101.948 h 56.901 L 74.144,191.395 H 23.278 L -98.715,-101.948 h 56.686 l 23.062,55.823 h 135.14 z"
       style="fill:#00fff5;fill-opacity:1;fill-rule:nonzero;stroke:none"
       transform="matrix(1.3333333,0,0,-1.3333333,656.3292,853.0268)"
       clip-path="url(#clipPath12)" />
    <path
       id="path13"
       d="M 0,0 C 62.074,0 129.968,37.719 148.935,106.905 H 93.758 C 78.239,68.325 40.305,46.34 0,46.34 c -57.979,0 -104.966,46.34 -104.966,106.69 0,60.565 46.987,106.905 104.966,106.905 40.305,0 78.455,-22.415 93.973,-60.996 l 54.962,-0.216 C 130.183,270.065 61.859,306.275 0,306.275 c -87.723,0 -158.634,-67.678 -158.634,-153.03 C -158.634,68.109 -87.723,0 0,0"
       style="fill:#00fff5;fill-opacity:1;fill-rule:nonzero;stroke:none"
       transform="matrix(1.3333333,0,0,-1.3333333,1111.442,997.2916)"
       clip-path="url(#clipPath14)" />
    <path
       id="path15"
       d="m 769.359,1143.478 h -58.855 v -19.618 h 58.855 z"
       style="fill:#00fff5;fill-opacity:1;fill-rule:nonzero;stroke:none"
       transform="matrix(1.3333333,0,0,-1.3333333,0,1607.6533)"
       clip-path="url(#clipPath16)" />
    <path
       id="path17"
       d="m 0,0 h 13.025 v -34.308 c 0,-13.27 -9.656,-22.884 -24.527,-22.884 -13.848,0 -24.571,8.75 -24.571,22.884 V 0 h 12.981 v -34.349 c 0,-6.696 4.069,-11.75 11.59,-11.75 7.354,0 11.502,5.012 11.502,11.71 z"
       style="fill:#00fff5;fill-opacity:1;fill-rule:nonzero;stroke:none"
       transform="matrix(1.3333333,0,0,-1.3333333,450.15293,160.166)"
       clip-path="url(#clipPath18)" />
    <path
       id="path19"
       d="M 0,0 H -11.257 L -37.924,33.485 V 0 h -13.025 v 55.877 h 11.341 L -12.985,22.473 V 55.877 H 0 Z"
       style="fill:#00fff5;fill-opacity:1;fill-rule:nonzero;stroke:none"
       transform="matrix(1.3333333,0,0,-1.3333333,550.7796,234.66893)"
       clip-path="url(#clipPath20)" />
    <path
       id="path21"
       d="M 0,0 H 39.363 V -11.218 H 13.025 V -22.639 H 35.622 V -33.813 H 13.025 V -44.701 H 39.731 V -55.877 H 0 Z"
       style="fill:#00fff5;fill-opacity:1;fill-rule:nonzero;stroke:none"
       transform="matrix(1.3333333,0,0,-1.3333333,564.37347,160.166)"
       clip-path="url(#clipPath22)" />
    <path
       id="path23"
       d="m 0,0 h 11.406 c 4.62,0 8.305,3.863 8.305,8.791 0,4.839 -3.685,8.924 -8.305,8.924 H 0 Z M 0,-12.078 V -30.592 H -14.076 V 29.791 H 11.99 c 12.693,0 21.798,-8.835 21.798,-21 0,-12.3 -9.017,-20.869 -21.582,-20.869 z"
       style="fill:#00fff5;fill-opacity:1;fill-rule:nonzero;stroke:none"
       transform="matrix(1.3333333,0,0,-1.3333333,969.80627,518.38627)"
       clip-path="url(#clipPath24)" />
    <path
       id="path25"
       d="M 0,0 C 10.615,0 19.008,8.435 19.008,19.536 19.008,30.68 10.615,39.071 0,39.071 -10.431,39.071 -18.952,30.68 -18.952,19.536 -18.952,8.435 -10.431,0 0,0 m 0,51.193 c 18.209,0 33.036,-14.03 33.036,-31.613 0,-17.538 -14.827,-31.658 -33.036,-31.658 -18.249,0 -32.988,14.12 -32.988,31.658 0,17.583 14.739,31.613 32.988,31.613"
       style="fill:#00fff5;fill-opacity:1;fill-rule:nonzero;stroke:none"
       transform="matrix(1.3333333,0,0,-1.3333333,1061.4516,544.908)"
       clip-path="url(#clipPath26)" />
    <path
       id="path27"
       d="m 0,0 h 14.076 v -37.073 c 0,-14.342 -10.431,-24.731 -26.506,-24.731 -14.963,0 -26.553,9.458 -26.553,24.731 V 0 h 14.036 v -37.117 c 0,-7.238 4.396,-12.699 12.517,-12.699 7.946,0 12.43,5.417 12.43,12.653 z"
       style="fill:#00fff5;fill-opacity:1;fill-rule:nonzero;stroke:none"
       transform="matrix(1.3333333,0,0,-1.3333333,1164.1599,478.66507)"
       clip-path="url(#clipPath28)" />
    <path
       id="path29"
       d="m 0,0 h 11.806 c 4.62,0 8.305,3.287 8.305,8.215 0,4.84 -3.685,8.347 -8.305,8.347 L 0,16.562 Z M 35.65,-31.745 H 19.488 L 8.968,-12.076 H 0 V -31.745 H -14.076 V 28.638 H 12.39 c 12.693,0 21.797,-8.257 21.797,-20.423 0,-8.569 -4.348,-15.051 -11.278,-18.205 z"
       style="fill:#00fff5;fill-opacity:1;fill-rule:nonzero;stroke:none"
       transform="matrix(1.3333333,0,0,-1.3333333,1211.4161,516.84893)"
       clip-path="url(#clipPath30)" />
    <path
       id="path31"
       d="M 0,0 H -72.299 L -224.1,-191.553 V 0 h -61.864 v -341.981 h 61.864 v 68.689 l 63.106,77.764 93.913,-142.36 H 6.211 l -126.708,188.074 z"
       style="fill:#00fff5;fill-opacity:1;fill-rule:nonzero;stroke:none"
       transform="matrix(1.3333333,0,0,-1.3333333,515.3612,1040.2805)"
       clip-path="url(#clipPath32)" />
    <path
       id="path33"
       d="m 427.134,86.317 h 233.828 v 53.424 H 427.134 Z"
       style="fill:#00fff5;fill-opacity:1;fill-rule:nonzero;stroke:none"
       transform="matrix(1.3333333,0,0,-1.3333333,0,1607.6533)"
       clip-path="url(#clipPath34)" />
    <path
       id="path35"
       d="M 658.723,280.135 H 427.134 v -53.176 h 231.589 z"
       style="fill:#00fff5;fill-opacity:1;fill-rule:nonzero;stroke:none"
       transform="matrix(1.3333333,0,0,-1.3333333,0,1607.6533)"
       clip-path="url(#clipPath36)" />
    <path
       id="path37"
       d="M 658.723,424.256 H 427.134 v -53.671 h 231.589 z"
       style="fill:#00fff5;fill-opacity:1;fill-rule:nonzero;stroke:none"
       transform="matrix(1.3333333,0,0,-1.3333333,0,1607.6533)"
       clip-path="url(#clipPath38)" />
    <path
       id="path39"
       d="m 0,0 c 41.247,15.903 67.587,52.429 67.587,101.631 0,65.847 -48.953,110.325 -117.283,110.325 H -195.559 V 44.976 h 61.873 v 113.557 h 81.502 c 32.802,0 57.898,-23.607 57.898,-57.153 0,-34.041 -25.096,-56.156 -57.397,-56.404 h -80.184 V -8.449 h 69.746 L 4.222,-125.983 h 71.067 z"
       style="fill:#00fff5;fill-opacity:1;fill-rule:nonzero;stroke:none"
       transform="matrix(1.3333333,0,0,-1.3333333,1209.6373,1324.5871)"
       clip-path="url(#clipPath40)" />
    <path
       id="path41"
       d="m 711.669,86.317 h 61.873 v 89.242 h -61.873 z"
       style="fill:#00fff5;fill-opacity:1;fill-rule:nonzero;stroke:none"
       transform="matrix(1.3333333,0,0,-1.3333333,0,1607.6533)"
       clip-path="url(#clipPath42)" />
  </g>
</svg>
