<?xml version="1.0" encoding="UTF-8"?>
<svg id="Layer_2" data-name="Layer 2" xmlns="http://www.w3.org/2000/svg" viewBox="0 0 237.14 116.72">
  <defs>
    <style>
      .cls-1 {
        fill: #d10a0a;
      }
    </style>
  </defs>
  <g id="Layer_1-2" data-name="Layer 1">
    <path class="cls-1" d="M96.25,89.44h-8.6l7.05-24.52,14.58-.03s28.73-1.33,28.73-28c0-4.13-4.61-8.35-8.74-8.35v.02h-34.41l-24.45,88.16h-28.54l23.15-83.49h11.19c.62,1.94,2.43,3.35,4.58,3.35,2.73,0,4.93-2.28,4.8-5.04-.11-2.41-2.08-4.41-4.49-4.56-2.28-.14-4.24,1.3-4.89,3.34h-21.06l-23.96,86.41H2.65L26.62,30.31h-5.8c-1.25,4.47-5.35,7.75-10.21,7.75C4.5,38.06-.4,32.9.03,26.7c.37-5.32,4.75-9.59,10.08-9.84,4.68-.22,8.73,2.6,10.35,6.66h8.05L35.02.02h28.54l-6.51,23.49c4.36-.04,8.56-1.59,11.89-4.37L74.24.02h37.39v-.02h22.78c11.8,0,21.82,5.03,27.48,13.81.24.37.47.75.7,1.14L166.73.02h70.42l-7.91,28.54h-19.79l-24.45,88.16h-28.54l10.96-39.54h9.38v-2.92h-8.57l12.68-45.7h-13.2c1.05,6.25.45,12.95-2.58,19.62l-3.17,6.96c-3.15,6.92-7.98,13.49-13.99,19.13h-9.64c-.62-1.94-2.43-3.35-4.58-3.35-2.73,0-4.93,2.28-4.8,5.04.11,2.41,2.08,4.41,4.49,4.56,2.28.14,4.24-1.3,4.89-3.34h6.32c-1.54,1.27-3.15,2.49-4.81,3.63-4.57,3.14-9.38,5.64-14.24,7.44-.49.18-.68.76-.4,1.19,3.13,4.77,19.82,27.27,19.82,27.27h-28.89l-19.87-27.28Z"/>
  </g>
</svg>